<svg width="197" height="81" viewBox="0 0 197 81" fill="none" xmlns="http://www.w3.org/2000/svg">
<path d="M42.6 6.66631C36.3334 19.5996 28.0667 25.8663 12.7334 29.1996C9.26669 29.9996 3.80002 37.333 5.53336 38.933C6.73336 40.133 19.6667 36.6663 26.2 33.333C33.8 29.5996 40.3334 22.2663 46.2 11.4663C51 2.39965 51.2667 0.666315 47.9334 0.666315C46.4667 0.666315 44.4667 2.79965 42.6 6.66631Z" fill="#00519E"/>
<path d="M52.6001 12.3996C49.0001 13.1996 46.0667 21.5996 45.9334 30.933C45.9334 38.933 45.9334 39.0663 42.0667 39.5996C39.0001 40.133 38.3334 39.8663 38.8667 38.133C41.4001 30.133 41.4001 29.9996 38.6001 29.9996C35.1334 29.9996 34.0667 31.4663 29.0001 43.8663C22.3334 59.9996 13.2667 68.133 7.9334 62.7996C3.80006 58.6663 10.3334 47.9996 18.2001 46.533C20.6001 45.9996 22.3334 44.6663 22.8667 42.933C23.8001 39.0663 23.1334 38.6663 17.1334 40.3996C6.46673 43.5996 -2.99994 59.733 1.26673 67.333C3.40006 71.1996 8.7334 72.2663 13.2667 69.8663C15.0001 68.933 16.3334 68.7996 16.6001 69.5996C16.8667 70.2663 18.7334 70.6663 20.8667 70.2663C24.2001 69.8663 25.1334 68.533 27.8001 61.733C31.6667 52.133 38.2001 45.5996 43.4001 46.2663C46.3334 46.533 47.1334 47.4663 47.4001 51.0663C47.8001 54.3996 47.0001 56.2663 43.8001 59.333C41.6667 61.5996 38.7334 63.333 37.2667 63.333C35.2667 63.333 31.6667 67.9996 31.6667 70.7996C31.6667 71.9996 39.1334 69.5996 43.5334 66.933C48.7334 63.733 55.6667 53.5996 55.6667 48.933C55.6667 46.533 56.2001 45.8663 57.8001 46.533C59.0001 46.933 60.4667 47.333 61.1334 47.333C61.8001 47.333 61.4001 48.7996 60.2001 50.6663C58.2001 53.733 58.2001 53.9996 60.3334 53.9996C61.5334 53.9996 64.4667 52.533 66.8667 50.6663C69.2667 48.7996 72.4667 47.333 73.9334 47.333C77.1334 47.333 80.3334 50.533 79.0001 52.6663C78.4667 53.4663 79.8001 53.9996 82.2001 53.9996C86.2001 53.9996 86.3334 53.733 86.3334 48.533C86.3334 44.933 87.1334 42.3996 88.4667 41.333C89.9334 40.3996 90.3334 38.7996 89.8001 37.0663C89.0001 34.533 88.6001 34.533 80.6001 36.2663C76.0667 37.1996 70.3334 37.9996 67.9334 37.9996C63.0001 37.9996 54.3334 34.7996 52.7334 32.2663C51.0001 29.5996 51.5334 20.7996 53.8001 16.533C56.0667 11.9996 56.0667 11.5996 52.6001 12.3996Z" fill="#E2001D"/>
<path d="M98.4664 15.1998C93.2664 20.3998 91.533 33.1998 94.9997 39.7332C96.8664 43.3332 96.733 43.8665 93.6664 47.8665C90.5997 51.9998 81.133 71.3332 79.133 77.5998C78.333 80.2665 78.5997 80.6665 81.3997 80.6665C83.7997 80.6665 85.133 79.4665 86.9997 75.4665C89.133 70.6665 89.6664 70.2665 93.6664 70.9332C102.333 72.2665 115.933 61.1998 117.933 50.9332C118.466 48.2665 119.4 47.3332 121.8 47.3332C125 47.3332 125 47.4665 122.866 50.6665C120.866 53.7332 120.866 53.9998 123 53.9998C124.2 53.9998 127.133 52.5332 129.266 50.5332C134.333 46.3998 140.066 46.5332 140.733 50.9332C141.133 53.3332 142.066 53.9998 145.133 53.9998C148.733 53.9998 149 53.7332 149 48.7998C149 44.9332 148.2 42.9332 146.2 41.4665C143.4 39.5998 143.533 39.4665 148.733 36.7998C157.666 32.2665 172.866 28.6665 183.266 28.6665C192.733 28.6665 193 28.5332 195 24.5332C196.2 22.2665 197 20.2665 196.733 19.9998C196.466 19.7332 190.733 20.2665 183.933 20.9332C172.333 22.2665 170.2 22.1332 153.933 18.6665C136.066 14.7998 125.4 14.1332 113.933 15.8665C108.733 16.6665 107.266 17.4665 106.2 20.2665C105.533 22.1332 105.133 23.8665 105.4 24.2665C105.666 24.5332 109.133 23.9998 113.133 23.1998C125.4 20.5332 151.133 23.8665 152.6 28.2665C153.133 29.5998 142.333 33.9998 131.933 36.6665C117.266 40.3998 101 37.7332 98.9997 31.3332C97.933 28.1332 99.2664 21.4665 101.8 16.2665C104.066 11.9998 102.2 11.4665 98.4664 15.1998ZM107.8 48.6665C111.266 50.6665 111 54.3998 107 59.1998C103.133 63.7332 99.533 65.1998 95.6664 63.9998C91.3997 62.6665 92.333 57.0665 97.533 51.8665C102.466 46.9332 103.8 46.5332 107.8 48.6665Z" fill="#00519E"/>
<path d="M180.334 33.1999C171.267 35.4665 166.6 38.1332 160.067 44.9332C155.267 49.9999 144.067 69.4665 145.267 70.7999C146.867 72.2665 151.667 69.1999 153.134 65.8665C157.934 53.9999 169 44.3999 180.467 41.9999C186.334 40.7999 188.067 39.7332 189.667 36.6665C190.734 34.5332 191.667 32.5332 191.667 31.9999C191.667 30.9332 187.8 31.3332 180.334 33.1999Z" fill="#E2001D"/>
<path d="M55.667 62.5334C55.667 70.6667 59.667 72.5334 70.2003 69.2C72.7337 68.5334 73.1337 68.6667 72.3337 70C71.5337 71.3334 71.8003 71.6 73.5337 70.9334C74.867 70.4 76.467 70 77.1337 70C78.2003 70 83.667 60.5334 83.667 58.6667C83.667 56.8 77.9337 58.4 73.4003 61.3334C67.667 65.3334 63.5337 65.2 61.667 60.9334C61.0003 59.3334 59.267 58 58.067 58C56.2003 58 55.667 59.0667 55.667 62.5334Z" fill="#00519E"/>
<path d="M118.333 62.5334C118.333 70.6667 122.333 72.5334 132.866 69.2C135.4 68.5334 135.8 68.6667 135 70C134.2 71.3334 134.466 71.6 136.2 70.9334C137.533 70.4 139.133 70 139.8 70C140.866 70 146.333 60.5334 146.333 58.6667C146.333 56.8 139.4 58.2667 137 60.6667C131.933 65.7334 123.666 65.2 123.666 59.8667C123.666 58.8 122.466 58 121 58C118.866 58 118.333 58.9334 118.333 62.5334Z" fill="#E2001D"/>
</svg>
