<svg width="1191" height="1157" viewBox="0 0 1191 1157" fill="none" xmlns="http://www.w3.org/2000/svg">
<ellipse cx="595.5" cy="578.5" rx="595.5" ry="578.5" fill="#A5F2BB"/>
<path d="M537.316 658.442C530.968 658.443 524.698 657.048 518.95 654.356C513.201 651.664 508.115 647.74 504.053 642.863L357.526 466.947C353.474 462.638 350.347 457.546 348.336 451.983C346.325 446.421 345.473 440.506 345.832 434.602C346.192 428.698 347.755 422.93 350.426 417.653C353.098 412.375 356.82 407.7 361.365 403.915C365.91 400.129 371.181 397.314 376.854 395.641C382.528 393.968 388.483 393.473 394.355 394.187C400.226 394.901 405.89 396.808 410.997 399.792C416.104 402.776 420.547 406.773 424.053 411.537L530.789 539.663L761.653 139.789C767.404 129.834 776.874 122.571 787.98 119.598C799.086 116.625 810.918 118.186 820.874 123.937C830.829 129.688 838.092 139.158 841.065 150.264C844.038 161.37 842.477 173.202 836.726 183.158L574.789 636.716C571.3 642.757 566.404 647.868 560.518 651.613C554.632 655.359 547.93 657.629 540.979 658.232C539.747 658.349 538.511 658.405 537.274 658.4L537.316 658.442Z" fill="#1E8341"/>
<path d="M510.04 860.244H474.528C474.055 856.598 473.084 853.308 471.616 850.372C470.149 847.437 468.207 844.927 465.793 842.844C463.378 840.76 460.513 839.174 457.199 838.085C453.932 836.949 450.31 836.381 446.332 836.381C439.277 836.381 433.193 838.109 428.08 841.565C423.013 845.022 419.107 850.017 416.361 856.551C413.662 863.085 412.312 870.992 412.312 880.273C412.312 889.932 413.686 898.028 416.432 904.562C419.225 911.049 423.132 915.95 428.151 919.264C433.217 922.531 439.206 924.165 446.119 924.165C450.002 924.165 453.529 923.668 456.702 922.673C459.921 921.679 462.739 920.235 465.153 918.341C467.616 916.4 469.628 914.056 471.19 911.31C472.8 908.516 473.913 905.367 474.528 901.864L510.04 902.077C509.424 908.516 507.554 914.861 504.429 921.111C501.351 927.361 497.114 933.066 491.716 938.227C486.318 943.341 479.737 947.413 471.972 950.443C464.254 953.473 455.4 954.989 445.409 954.989C432.246 954.989 420.456 952.1 410.04 946.324C399.67 940.5 391.479 932.025 385.466 920.898C379.453 909.771 376.446 896.229 376.446 880.273C376.446 864.269 379.5 850.704 385.608 839.577C391.716 828.45 399.978 819.998 410.395 814.222C420.812 808.445 432.483 805.557 445.409 805.557C454.216 805.557 462.36 806.788 469.841 809.25C477.322 811.665 483.903 815.216 489.585 819.903C495.267 824.544 499.884 830.249 503.435 837.02C506.986 843.791 509.188 851.532 510.04 860.244ZM667.444 880.273C667.444 896.277 664.366 909.842 658.211 920.969C652.056 932.096 643.722 940.547 633.211 946.324C622.747 952.1 611.005 954.989 597.984 954.989C584.915 954.989 573.149 952.077 562.685 946.253C552.221 940.429 543.912 931.977 537.756 920.898C531.648 909.771 528.594 896.229 528.594 880.273C528.594 864.269 531.648 850.704 537.756 839.577C543.912 828.45 552.221 819.998 562.685 814.222C573.149 808.445 584.915 805.557 597.984 805.557C611.005 805.557 622.747 808.445 633.211 814.222C643.722 819.998 652.056 828.45 658.211 839.577C664.366 850.704 667.444 864.269 667.444 880.273ZM631.506 880.273C631.506 870.803 630.157 862.801 627.458 856.267C624.807 849.733 620.971 844.785 615.952 841.423C610.981 838.062 604.991 836.381 597.984 836.381C591.023 836.381 585.034 838.062 580.015 841.423C574.996 844.785 571.137 849.733 568.438 856.267C565.787 862.801 564.461 870.803 564.461 880.273C564.461 889.742 565.787 897.744 568.438 904.278C571.137 910.812 574.996 915.76 580.015 919.122C585.034 922.484 591.023 924.165 597.984 924.165C604.991 924.165 610.981 922.484 615.952 919.122C620.971 915.76 624.807 910.812 627.458 904.278C630.157 897.744 631.506 889.742 631.506 880.273ZM741.734 953H687.969V807.545H741.663C756.483 807.545 769.243 810.457 779.944 816.281C790.692 822.058 798.978 830.391 804.802 841.281C810.626 852.124 813.538 865.098 813.538 880.202C813.538 895.353 810.626 908.374 804.802 919.264C799.025 930.154 790.763 938.511 780.015 944.335C769.267 950.112 756.506 953 741.734 953ZM723.126 923.028H740.384C748.528 923.028 755.417 921.655 761.052 918.909C766.734 916.116 771.019 911.594 773.907 905.344C776.843 899.046 778.31 890.666 778.31 880.202C778.31 869.738 776.843 861.404 773.907 855.202C770.971 848.952 766.639 844.454 760.91 841.707C755.228 838.914 748.22 837.517 739.887 837.517H723.126V923.028Z" fill="#1E8341"/>
</svg>
